<?xml version="1.0" standalone="no"?>
<!DOCTYPE svg PUBLIC "-//W3C//DTD SVG 20010904//EN"
 "http://www.w3.org/TR/2001/REC-SVG-20010904/DTD/svg10.dtd">
<svg version="1.0" xmlns="http://www.w3.org/2000/svg"
 width="512.000000pt" height="512.000000pt" viewBox="0 0 512.000000 512.000000"
 preserveAspectRatio="xMidYMid meet">

<g transform="translate(0.000000,512.000000) scale(0.100000,-0.100000)"
fill="#000000" stroke="none">
<path d="M2035 5109 c-399 -43 -767 -191 -1100 -442 -99 -75 -311 -287 -387
-387 -225 -298 -368 -635 -424 -1000 -25 -159 -25 -481 0 -640 58 -376 211
-729 443 -1024 72 -91 258 -277 349 -348 459 -363 1052 -525 1629 -448 370 50
712 190 1006 411 l76 58 39 -40 38 -39 -44 -46 -45 -46 565 -559 565 -559 138
138 138 138 -528 526 c-291 289 -545 540 -566 558 l-38 33 -45 -44 -44 -43
-36 35 -36 36 51 48 c136 127 312 372 411 569 154 310 223 612 222 971 -1 525
-167 982 -504 1388 -328 395 -803 661 -1323 742 -123 20 -429 27 -550 14z
m525 -145 c405 -60 780 -241 1084 -525 335 -312 546 -716 621 -1189 23 -140
23 -436 1 -579 -70 -452 -259 -827 -575 -1142 -319 -318 -685 -504 -1132 -575
-143 -23 -457 -23 -598 0 -358 57 -661 186 -941 401 -412 316 -682 776 -766
1306 -23 141 -22 455 0 598 96 608 444 1127 967 1443 261 157 604 263 914 282
103 6 315 -4 425 -20z"/>
<path d="M1573 3960 c-230 -35 -416 -277 -484 -627 -11 -58 -14 -64 -54 -87
-100 -59 -194 -195 -232 -337 -23 -86 -23 -271 0 -357 22 -83 69 -176 118
-234 l39 -47 0 -185 0 -186 235 0 235 0 0 115 0 115 830 0 830 0 0 -115 0
-115 235 0 235 0 0 185 0 186 41 51 c54 69 84 130 110 225 27 99 29 256 4 358
-34 138 -122 269 -225 335 -28 18 -52 42 -55 54 -2 11 -9 47 -15 79 -52 269
-209 493 -398 569 l-57 23 -670 1 c-369 1 -693 -2 -722 -6z m1425 -165 c103
-48 200 -179 252 -343 40 -123 40 -124 -12 -120 -43 3 -43 3 -50 50 -27 194
-241 310 -418 227 -93 -44 -149 -115 -171 -219 l-11 -50 -617 0 c-340 0 -646
-3 -679 -6 l-62 -7 21 74 c33 120 101 250 167 317 104 108 44 100 837 101
l690 1 53 -25z m13 -290 c43 -28 75 -76 84 -127 l7 -38 -206 0 c-200 0 -206 1
-206 20 0 11 7 37 15 58 51 120 194 161 306 87z m-1615 -610 c49 -29 94 -108
94 -164 -1 -72 -59 -156 -125 -181 -65 -25 -155 -9 -209 39 -32 29 -56 88 -56
142 0 157 158 245 296 164z m1885 24 c118 -40 171 -166 118 -277 -49 -101
-188 -136 -285 -70 -77 53 -106 166 -62 247 27 51 57 76 114 96 48 17 72 18
115 4z m-438 -88 c32 -13 41 -39 22 -67 l-15 -24 -587 0 c-532 0 -588 2 -605
17 -24 22 -23 49 4 67 20 14 92 16 590 16 322 0 577 -4 591 -9z m29 -196 c9
-21 8 -28 -7 -45 -18 -20 -30 -20 -606 -20 -521 0 -589 2 -603 16 -19 18 -21
45 -4 62 9 9 158 12 610 12 l598 0 12 -25z"/>
</g>
</svg>
