<?xml version="1.0" standalone="no"?>
<!DOCTYPE svg PUBLIC "-//W3C//DTD SVG 20010904//EN"
 "http://www.w3.org/TR/2001/REC-SVG-20010904/DTD/svg10.dtd">
<svg version="1.0" xmlns="http://www.w3.org/2000/svg"
 width="512.000000pt" height="512.000000pt" viewBox="0 0 512.000000 512.000000"
 preserveAspectRatio="xMidYMid meet">

<g transform="translate(0.000000,512.000000) scale(0.100000,-0.100000)"
fill="#000000" stroke="none">
<path d="M2420 4709 c-242 -30 -454 -134 -631 -311 -225 -225 -333 -518 -308
-836 23 -298 171 -578 409 -772 97 -79 267 -163 395 -197 89 -23 120 -26 275
-27 161 -1 183 1 272 26 280 78 514 257 668 511 208 344 192 806 -41 1142 -59
85 -188 213 -274 272 -222 150 -513 224 -765 192z m291 -134 c218 -38 403
-137 555 -296 111 -117 186 -256 226 -415 27 -112 30 -321 6 -430 -97 -434
-500 -745 -962 -744 -354 1 -686 214 -842 543 -130 275 -113 630 43 896 46 79
186 228 268 286 207 147 458 204 706 160z"/>
<path d="M2517 4302 c-13 -14 -17 -38 -17 -99 l0 -81 -52 -11 c-65 -14 -115
-52 -139 -105 -25 -55 -27 -257 -4 -314 39 -92 85 -115 245 -120 69 -2 131 -9
138 -14 8 -7 12 -45 12 -124 0 -146 2 -144 -140 -144 -121 0 -140 8 -140 61 0
30 -38 79 -60 79 -16 0 -53 -21 -62 -34 -14 -21 -8 -90 12 -132 25 -51 84 -94
139 -101 l41 -6 1 -66 c1 -88 10 -113 42 -129 21 -10 31 -10 49 -1 35 18 38
27 38 117 l0 82 28 0 c41 1 104 33 135 69 40 48 50 94 46 228 -4 110 -6 123
-31 160 -43 65 -92 83 -224 83 -155 0 -154 0 -154 145 0 144 1 145 140 145
109 0 134 -11 144 -61 9 -45 23 -59 61 -59 81 0 87 105 11 188 -26 30 -61 47
-107 56 l-37 7 -3 78 c-3 60 -9 84 -23 100 -24 26 -67 27 -89 3z"/>
<path d="M1895 3705 c-28 -27 -33 -80 -14 -118 16 -29 28 -37 61 -37 37 0 58
34 58 92 0 81 -55 114 -105 63z"/>
<path d="M3140 3710 c-25 -25 -27 -105 -4 -138 18 -26 60 -29 90 -8 15 11 19
27 19 71 0 48 -4 60 -24 76 -30 24 -56 24 -81 -1z"/>
<path d="M700 4051 c-74 -26 -134 -90 -153 -162 -20 -74 -114 -528 -138 -667
-31 -185 -28 -217 71 -762 95 -521 98 -536 138 -615 45 -90 79 -128 347 -379
296 -278 298 -280 276 -379 -6 -29 -25 -81 -41 -115 l-29 -62 -90 0 c-126 0
-121 10 -121 -257 0 -200 1 -214 20 -233 20 -20 33 -20 750 -20 717 0 730 0
750 20 19 19 20 33 20 233 0 176 -3 216 -16 235 -8 12 -22 22 -30 22 -13 0
-15 8 -10 37 22 137 38 328 38 443 -1 118 -5 154 -36 289 -40 173 -63 222
-158 326 -75 82 -167 144 -305 204 -178 78 -204 103 -420 411 -174 247 -205
278 -309 301 -44 10 -69 10 -112 1 -31 -6 -57 -10 -59 -8 -9 9 -64 326 -69
396 -5 58 1 117 26 260 35 205 34 245 -5 327 -64 130 -212 198 -335 154z m133
-125 c44 -18 95 -78 103 -122 4 -24 -5 -105 -26 -233 -38 -228 -37 -246 16
-534 19 -103 34 -196 34 -205 0 -9 -11 -44 -25 -77 -28 -68 -31 -131 -11 -198
9 -30 95 -162 247 -379 292 -418 284 -408 317 -408 15 0 32 4 38 8 19 13 34
50 27 69 -3 10 -115 173 -248 363 -133 190 -247 355 -253 367 -17 30 -15 98 3
133 8 16 32 42 52 57 30 23 47 28 92 28 37 0 65 -6 82 -18 14 -9 98 -119 185
-244 220 -314 263 -355 464 -443 121 -53 178 -89 245 -157 85 -85 113 -137
147 -279 28 -114 31 -146 31 -274 0 -123 -13 -262 -39 -432 l-6 -38 -494 0
c-272 0 -494 3 -494 7 0 3 12 36 27 72 20 51 26 84 27 141 0 122 -11 136 -328
438 -255 243 -278 267 -311 335 -33 67 -43 112 -126 562 -61 336 -90 514 -90
565 0 41 14 147 30 235 48 261 119 593 131 615 14 27 68 60 98 60 12 0 37 -6
55 -14z m1537 -3266 l0 -130 -640 0 -640 0 0 130 0 130 640 0 640 0 0 -130z"/>
<path d="M4262 4052 c-101 -36 -180 -125 -203 -227 -11 -50 -9 -74 21 -252 25
-153 31 -214 26 -268 -6 -73 -60 -382 -68 -390 -3 -3 -29 0 -60 6 -41 8 -69 8
-111 -1 -101 -21 -134 -53 -309 -300 -94 -134 -183 -249 -220 -285 -62 -59
-89 -75 -261 -154 -144 -66 -257 -166 -337 -299 -29 -48 -44 -91 -71 -214 -30
-134 -34 -169 -33 -288 1 -114 22 -349 39 -440 4 -20 -1 -28 -25 -42 l-30 -17
0 -224 c0 -204 2 -225 18 -240 17 -16 83 -17 750 -17 719 0 732 0 752 20 19
19 20 33 20 235 0 265 5 255 -129 255 l-88 0 -33 83 c-41 103 -48 161 -23 205
10 17 130 138 267 267 257 242 312 303 352 391 30 64 39 102 119 519 76 395
105 582 105 679 0 74 -140 802 -166 866 -48 113 -185 173 -302 132z m150 -139
c11 -10 24 -25 29 -34 9 -18 109 -485 134 -626 41 -241 45 -189 -59 -762 -54
-292 -103 -536 -114 -561 -34 -77 -73 -120 -345 -378 -224 -213 -268 -260
-288 -304 -32 -75 -31 -171 5 -259 14 -36 26 -69 26 -72 0 -4 -222 -7 -494 -7
l-494 0 -6 38 c-23 145 -39 317 -39 432 -1 119 3 151 31 270 35 149 61 197
148 284 70 69 123 103 243 156 203 89 243 126 440 406 85 121 168 234 185 252
54 58 144 63 210 11 50 -40 70 -111 47 -172 -5 -13 -123 -185 -261 -383 -212
-302 -250 -362 -245 -384 8 -34 34 -51 70 -48 27 3 53 36 273 348 134 190 255
368 270 395 37 70 38 177 2 251 l-26 52 37 202 c56 306 57 324 19 553 -39 232
-37 254 25 314 24 23 54 44 67 46 38 8 89 -1 110 -20z m-382 -3258 l0 -125
-640 0 -640 0 0 125 0 125 640 0 640 0 0 -125z"/>
</g>
</svg>
