<?xml version="1.0" standalone="no"?>
<!DOCTYPE svg PUBLIC "-//W3C//DTD SVG 20010904//EN"
 "http://www.w3.org/TR/2001/REC-SVG-20010904/DTD/svg10.dtd">
<svg version="1.0" xmlns="http://www.w3.org/2000/svg"
 width="512.000000pt" height="512.000000pt" viewBox="0 0 512.000000 512.000000"
 preserveAspectRatio="xMidYMid meet">

<g transform="translate(0.000000,512.000000) scale(0.100000,-0.100000)"
fill="#000000" stroke="none">
<path d="M3319 5092 l-34 -30 -3 -173 c-2 -96 -1 -188 3 -205 15 -81 108 -112
166 -55 l29 29 0 201 c0 193 -1 201 -23 226 -14 17 -36 28 -63 32 -36 5 -46 1
-75 -25z"/>
<path d="M2249 4655 c-33 -18 -53 -64 -45 -102 5 -19 54 -76 146 -168 134
-134 141 -140 181 -140 34 0 46 6 71 34 26 29 30 39 25 75 -5 36 -20 55 -145
178 -125 124 -142 138 -173 138 -19 -1 -46 -7 -60 -15z"/>
<path d="M4283 4527 c-137 -136 -143 -145 -143 -183 0 -68 62 -115 125 -94 19
6 82 62 163 143 128 129 132 135 132 176 0 58 -41 101 -96 101 -36 0 -48 -9
-181 -143z"/>
<path d="M3272 4400 c-369 -51 -678 -316 -767 -657 -10 -38 -21 -71 -24 -75
-4 -4 -152 47 -331 112 -178 66 -338 120 -354 120 -17 0 -362 -122 -766 -270
-935 -344 -871 -320 -897 -346 l-23 -23 0 -613 c0 -358 4 -649 10 -698 63
-519 309 -1002 701 -1374 185 -176 409 -331 646 -446 126 -62 299 -130 330
-130 50 0 337 126 490 216 206 120 460 317 490 378 31 66 -14 136 -86 136 -33
0 -50 -8 -93 -45 -209 -177 -411 -308 -615 -399 -195 -88 -177 -86 -285 -41
-436 179 -814 485 -1057 854 -172 262 -274 532 -316 833 -13 93 -15 209 -13
667 l3 554 675 248 c371 137 704 260 740 273 l65 24 740 -272 740 -273 3 -554
c2 -458 0 -574 -13 -667 -21 -153 -63 -313 -119 -455 -25 -65 -46 -129 -46
-143 0 -13 13 -38 29 -56 24 -27 36 -33 69 -33 59 0 85 30 131 149 120 308
151 497 151 910 l0 274 66 11 c229 40 459 189 594 386 47 69 107 201 131 290
32 115 32 335 0 450 -26 99 -88 229 -145 309 -51 71 -160 178 -229 225 -170
116 -428 178 -625 151z m286 -216 c96 -24 231 -97 304 -164 285 -260 315 -689
70 -986 -105 -127 -244 -208 -424 -248 l-28 -6 0 238 c0 219 -2 241 -19 263
-14 18 -113 59 -401 164 l-382 140 6 47 c13 117 99 270 210 376 180 171 426
236 664 176z"/>
<path d="M4541 3576 c-47 -27 -63 -84 -37 -135 24 -45 51 -51 247 -51 190 0
226 7 249 49 18 35 12 88 -14 118 l-24 28 -199 2 c-152 2 -204 0 -222 -11z"/>
<path d="M1166 3230 c-483 -178 -594 -222 -614 -245 l-23 -28 4 -506 c4 -477
5 -512 26 -606 127 -574 510 -1047 1076 -1327 112 -56 146 -69 172 -64 54 8
260 115 398 207 430 286 718 698 826 1184 21 95 23 127 26 607 l4 506 -28 30
c-23 25 -127 66 -616 246 -394 144 -601 216 -625 215 -22 0 -286 -93 -626
-219z m1237 -205 l458 -169 -4 -445 c-3 -411 -5 -453 -25 -538 -115 -498 -444
-909 -929 -1160 l-103 -53 -57 25 c-76 34 -243 134 -323 194 -346 260 -569
596 -662 996 -19 82 -22 127 -25 535 l-4 445 533 197 533 196 75 -28 c41 -15
281 -103 533 -195z"/>
<path d="M2345 2479 c-11 -6 -174 -165 -362 -352 l-343 -342 -148 148 c-138
137 -151 147 -186 147 -55 0 -96 -43 -96 -101 0 -42 3 -46 187 -231 196 -197
225 -218 279 -198 33 12 777 750 800 792 35 66 1 136 -71 144 -22 2 -49 -1
-60 -7z"/>
<path d="M4188 2724 c-35 -18 -48 -43 -48 -90 0 -36 9 -48 143 -181 133 -134
145 -143 181 -143 55 0 96 43 96 101 0 41 -5 47 -127 171 -160 162 -184 176
-245 142z"/>
<path d="M2919 1041 c-75 -76 4 -201 102 -161 66 28 81 109 30 161 -41 40 -91
40 -132 0z"/>
</g>
</svg>
