<?xml version="1.0" standalone="no"?>
<!DOCTYPE svg PUBLIC "-//W3C//DTD SVG 20010904//EN"
 "http://www.w3.org/TR/2001/REC-SVG-20010904/DTD/svg10.dtd">
<svg version="1.0" xmlns="http://www.w3.org/2000/svg"
 width="512.000000pt" height="512.000000pt" viewBox="0 0 512.000000 512.000000"
 preserveAspectRatio="xMidYMid meet">

<g transform="translate(0.000000,512.000000) scale(0.100000,-0.100000)"
fill="#000000" stroke="none">
<path d="M4095 4306 c-16 -8 -762 -747 -1657 -1643 -1771 -1773 -1651 -1645
-1633 -1740 9 -49 69 -109 118 -118 89 -17 88 -17 408 301 l296 295 104 -55
c264 -139 534 -206 835 -206 380 0 732 114 1026 333 147 109 899 749 930 791
17 23 45 70 62 106 30 62 31 71 31 190 0 120 -1 128 -32 193 -18 38 -47 87
-64 109 -18 21 -198 179 -401 350 l-369 312 275 275 c151 152 280 289 286 304
27 73 0 147 -69 194 -39 26 -99 30 -146 9z m-203 -1322 c200 -168 373 -320
386 -337 31 -44 31 -130 0 -174 -35 -49 -820 -707 -930 -780 -255 -168 -517
-241 -833 -230 -170 6 -277 24 -417 71 -84 28 -228 95 -228 105 0 3 56 62 124
130 l123 123 55 -31 c30 -17 81 -40 114 -52 482 -168 984 129 1064 631 26 170
-8 360 -91 508 l-31 55 143 143 c79 79 147 144 151 144 4 0 171 -138 370 -306z
m-877 -271 c109 -317 -155 -657 -490 -630 -68 6 -165 32 -165 45 0 9 623 632
632 632 3 0 14 -21 23 -47z"/>
<path d="M2299 3965 c-298 -48 -578 -167 -799 -338 -187 -145 -883 -743 -908
-780 -68 -98 -92 -174 -92 -287 0 -113 24 -189 91 -287 41 -59 434 -391 480
-405 55 -16 105 -2 152 41 37 35 41 43 44 97 3 44 0 67 -14 91 -10 18 -103
105 -207 193 -105 88 -198 173 -208 188 -27 40 -24 129 5 169 26 37 825 711
912 770 150 101 330 178 515 218 114 25 382 31 498 11 123 -21 148 -20 197 9
99 57 101 196 5 266 -45 33 -171 51 -385 55 -140 2 -226 -1 -286 -11z"/>
<path d="M2415 3345 c-339 -63 -593 -328 -646 -673 -11 -72 -10 -86 5 -126 26
-68 74 -101 147 -101 98 0 145 50 165 176 35 221 189 375 413 413 127 22 176
67 176 164 0 70 -28 115 -89 143 -47 21 -75 22 -171 4z"/>
</g>
</svg>
