<?xml version="1.0" standalone="no"?>
<!DOCTYPE svg PUBLIC "-//W3C//DTD SVG 20010904//EN"
 "http://www.w3.org/TR/2001/REC-SVG-20010904/DTD/svg10.dtd">
<svg version="1.0" xmlns="http://www.w3.org/2000/svg"
 width="512.000000pt" height="512.000000pt" viewBox="0 0 512.000000 512.000000"
 preserveAspectRatio="xMidYMid meet">

<g transform="translate(0.000000,512.000000) scale(0.100000,-0.100000)"
fill="#000000" stroke="none">
<path d="M2501 5084 c-19 -24 -21 -40 -21 -146 0 -113 1 -120 25 -143 15 -16
36 -25 55 -25 19 0 40 9 55 25 24 23 25 30 25 145 0 115 -1 122 -25 145 -34
35 -86 34 -114 -1z"/>
<path d="M2021 4954 c-12 -15 -21 -36 -21 -47 0 -21 89 -187 118 -219 23 -27
83 -24 110 5 32 34 27 69 -19 150 -71 122 -85 137 -129 137 -30 0 -43 -6 -59
-26z"/>
<path d="M2977 4948 c-49 -67 -107 -177 -107 -206 0 -60 94 -99 132 -54 29 32
118 198 118 219 0 11 -9 32 -21 47 -16 20 -29 26 -59 26 -32 0 -43 -6 -63 -32z"/>
<path d="M1671 4604 c-24 -30 -27 -71 -8 -96 17 -21 201 -128 221 -128 30 0
65 23 77 51 21 53 -1 82 -110 144 -112 63 -148 69 -180 29z"/>
<path d="M2422 4616 c-194 -48 -365 -225 -407 -423 -20 -93 -19 -166 5 -257
27 -107 63 -169 145 -252 109 -111 239 -167 390 -167 161 -1 280 48 395 163
87 86 122 147 150 256 91 355 -178 697 -545 693 -44 0 -104 -6 -133 -13z m300
-178 c109 -50 193 -150 223 -264 20 -78 19 -139 -5 -216 -79 -256 -380 -364
-601 -216 -199 133 -237 419 -77 593 92 101 176 136 313 132 72 -2 101 -8 147
-29z"/>
<path d="M3269 4575 c-109 -62 -131 -91 -110 -144 12 -28 47 -51 77 -51 20 0
204 107 221 128 19 25 16 66 -8 96 -32 40 -69 34 -180 -29z"/>
<path d="M1541 4124 c-28 -35 -26 -67 3 -101 24 -28 25 -28 151 -28 121 0 128
1 146 24 25 31 25 85 -1 111 -18 18 -33 20 -149 20 -128 0 -130 0 -150 -26z"/>
<path d="M3282 4130 c-28 -26 -29 -79 -3 -111 18 -23 25 -24 146 -24 126 0
127 0 151 28 31 36 31 71 -1 102 -23 24 -30 25 -148 25 -110 0 -126 -2 -145
-20z"/>
<path d="M1870 3763 c-41 -15 -192 -107 -205 -126 -30 -43 -13 -97 38 -116 33
-13 40 -10 150 52 92 52 117 76 117 114 0 42 -62 89 -100 76z"/>
<path d="M3204 3760 c-27 -11 -54 -48 -54 -75 0 -35 26 -61 117 -112 110 -62
117 -65 150 -52 51 19 68 73 38 116 -15 22 -172 116 -210 126 -11 3 -30 2 -41
-3z"/>
<path d="M2122 3462 c-31 -31 -122 -198 -122 -224 0 -50 61 -88 109 -68 34 14
141 192 141 234 0 60 -86 100 -128 58z"/>
<path d="M2895 3455 c-14 -14 -25 -36 -25 -51 0 -43 107 -220 142 -235 50 -21
108 21 108 78 0 19 -96 189 -122 215 -26 26 -74 23 -103 -7z"/>
<path d="M2525 3368 c-40 -23 -44 -40 -45 -160 0 -108 2 -119 23 -144 17 -20
33 -27 57 -27 24 0 40 7 57 27 21 25 23 36 23 136 0 119 -9 152 -47 169 -30
14 -43 13 -68 -1z"/>
<path d="M334 3080 c-29 -11 -54 -49 -54 -80 0 -20 173 -198 843 -868 463
-463 852 -845 864 -848 12 -3 32 -3 45 1 13 4 364 347 781 763 l757 757 0
-101 c0 -109 12 -159 40 -174 32 -17 75 -11 98 13 21 23 22 31 22 260 0 223
-1 238 -20 257 -11 11 -30 22 -43 25 -12 4 -120 5 -240 3 -201 -3 -218 -4
-236 -23 -28 -29 -31 -77 -7 -111 13 -17 31 -20 145 -24 l131 -5 -725 -725
-725 -725 -798 796 c-438 439 -807 802 -819 808 -25 13 -30 13 -59 1z"/>
<path d="M1435 3079 c-32 -18 -45 -40 -45 -78 0 -33 26 -62 453 -488 401 -402
456 -453 483 -453 48 0 84 34 84 78 0 35 -21 57 -452 489 -285 284 -462 454
-478 457 -14 3 -34 1 -45 -5z"/>
<path d="M4300 3061 c-35 -35 -38 -68 -10 -104 20 -26 25 -26 146 -29 l124 -3
-725 -725 -725 -725 -142 142 c-79 77 -153 144 -165 148 -26 7 -78 -17 -87
-40 -3 -9 -6 -30 -6 -47 0 -26 25 -55 168 -200 168 -171 202 -198 244 -198 17
0 222 199 790 767 l768 768 0 -123 c0 -117 1 -124 25 -147 15 -16 36 -25 55
-25 19 0 40 9 55 25 l25 24 0 230 c0 229 0 230 -24 258 l-24 28 -231 3 -231 3
-30 -30z"/>
<path d="M21 1084 c-28 -35 -26 -67 3 -101 l24 -28 2512 0 2512 0 24 28 c31
36 31 71 -1 102 l-24 25 -2515 0 -2515 0 -20 -26z"/>
<path d="M580 836 c-102 -29 -188 -88 -246 -169 -84 -117 -135 -153 -237 -167
-75 -11 -97 -30 -97 -85 0 -57 22 -75 89 -75 73 0 149 24 219 69 57 37 85 66
155 161 69 94 174 135 285 112 71 -15 126 -53 172 -117 61 -86 137 -155 208
-188 85 -39 214 -49 304 -23 105 31 175 87 271 216 69 94 174 135 285 112 71
-15 126 -53 172 -117 61 -86 137 -155 208 -188 85 -39 214 -49 304 -23 105 31
175 87 271 216 69 94 174 135 285 112 71 -15 126 -53 172 -117 61 -86 137
-155 208 -188 85 -39 214 -49 304 -23 105 31 175 87 271 216 69 94 174 135
285 112 71 -15 126 -53 172 -117 98 -140 214 -214 347 -223 67 -4 73 -3 97 21
32 32 33 68 4 102 -18 20 -37 28 -84 34 -103 15 -161 56 -246 176 -54 75 -144
135 -243 161 -167 45 -358 -25 -461 -169 -91 -127 -154 -167 -264 -167 -109 0
-182 47 -271 173 -34 49 -95 99 -159 132 -184 94 -424 33 -546 -138 -91 -127
-154 -167 -264 -167 -109 0 -182 47 -271 173 -34 49 -95 99 -159 132 -184 94
-424 33 -546 -138 -91 -127 -154 -167 -264 -167 -109 0 -182 47 -271 173 -95
137 -296 208 -459 163z"/>
<path d="M35 158 c-29 -16 -35 -28 -35 -74 0 -67 15 -74 163 -74 124 0 126 0
146 26 31 39 27 77 -10 108 -29 24 -37 26 -137 26 -61 0 -116 -6 -127 -12z"/>
<path d="M724 160 c-28 -11 -54 -48 -54 -78 0 -12 11 -34 25 -47 23 -24 30
-25 148 -25 116 0 125 1 145 23 37 39 28 98 -19 122 -31 17 -208 20 -245 5z"/>
<path d="M1405 161 c-51 -22 -65 -91 -25 -131 18 -18 33 -20 145 -20 112 0
127 2 145 20 30 30 30 83 -1 115 -17 17 -34 20 -132 22 -61 2 -121 -1 -132 -6z"/>
<path d="M2085 159 c-51 -29 -61 -90 -22 -127 21 -20 34 -22 144 -22 135 0
158 9 169 66 5 24 0 37 -19 60 -25 28 -27 29 -139 32 -71 1 -120 -2 -133 -9z"/>
<path d="M2751 144 c-37 -31 -41 -69 -10 -108 20 -26 22 -26 149 -26 127 0
129 0 149 26 23 30 27 71 8 95 -24 31 -56 39 -161 39 -98 0 -106 -2 -135 -26z"/>
<path d="M3453 160 c-34 -14 -56 -54 -48 -90 11 -52 35 -60 170 -60 114 0 123
1 143 23 37 39 28 98 -19 122 -31 17 -208 20 -246 5z"/>
<path d="M4140 163 c-52 -19 -69 -94 -30 -133 18 -18 33 -20 141 -20 66 0 128
4 138 10 10 5 24 23 31 39 15 37 -2 79 -40 98 -25 13 -209 17 -240 6z"/>
<path d="M4815 159 c-51 -29 -61 -90 -22 -127 21 -20 34 -22 146 -22 116 0
123 1 146 25 32 31 32 66 1 102 -24 27 -27 28 -138 31 -71 1 -120 -2 -133 -9z"/>
</g>
</svg>
